<?xml version="1.0" standalone="no"?>
<!DOCTYPE svg PUBLIC "-//W3C//DTD SVG 20010904//EN"
 "http://www.w3.org/TR/2001/REC-SVG-20010904/DTD/svg10.dtd">
<svg version="1.0" xmlns="http://www.w3.org/2000/svg"
 width="440.000000pt" height="520.000000pt" viewBox="0 0 440.000000 520.000000"
 preserveAspectRatio="xMidYMid meet">
<metadata>
Created by potrace 1.13, written by Peter Selinger 2001-2015
</metadata>
<g transform="translate(0.000000,520.000000) scale(0.100000,-0.100000)"
fill="#000000" stroke="none">
<path d="M238 4971 l-33 -29 -3 -1729 c-2 -1246 0 -1750 8 -1808 16 -111 61
-246 114 -338 148 -258 385 -427 676 -481 174 -32 3012 -388 3045 -382 49 9
110 58 134 108 l21 44 0 2283 c0 2483 4 2322 -55 2349 -20 9 -480 12 -1950 12
l-1925 0 -32 -29z m3462 -2332 l0 -1861 -22 14 c-41 26 -1932 1135 -1966 1152
-35 18 -64 11 -76 -20 -3 -8 -6 -116 -6 -239 0 -191 -3 -232 -19 -284 -63
-204 -269 -345 -476 -328 -151 13 -278 84 -353 197 -84 125 -77 -25 -80 1698
l-2 1532 1500 0 1500 0 0 -1861z"/>
<path d="M1170 3650 l0 -150 1030 0 1030 0 0 150 0 150 -1030 0 -1030 0 0
-150z"/>
<path d="M1170 2930 l0 -150 1030 0 1030 0 0 150 0 150 -1030 0 -1030 0 0
-150z"/>
</g>
</svg>
