<?xml version="1.0" standalone="no"?>
<!DOCTYPE svg PUBLIC "-//W3C//DTD SVG 20010904//EN"
 "http://www.w3.org/TR/2001/REC-SVG-20010904/DTD/svg10.dtd">
<svg version="1.0" xmlns="http://www.w3.org/2000/svg"
 width="626.000000pt" height="626.000000pt" viewBox="0 0 626.000000 626.000000"
 preserveAspectRatio="xMidYMid meet">
<metadata>
Created by potrace 1.13, written by Peter Selinger 2001-2015
</metadata>
<g transform="translate(0.000000,626.000000) scale(0.100000,-0.100000)"
fill="#000000" stroke="none">
<path d="M1477 6249 c-107 -25 -212 -111 -263 -215 l-29 -59 -3 -442 -3 -443
191 0 190 0 0 390 0 390 1570 0 1570 0 0 -390 0 -390 190 0 190 0 0 423 c0
463 -2 476 -61 568 -41 65 -90 106 -169 143 l-65 31 -1635 2 c-928 0 -1651 -3
-1673 -8z"/>
<path d="M271 4674 c-101 -32 -188 -112 -239 -221 l-27 -58 -3 -1230 c-3
-1290 -3 -1293 40 -1380 44 -88 131 -167 220 -198 22 -8 173 -13 473 -17 l440
-5 5 -635 c4 -454 9 -645 17 -668 18 -51 70 -128 111 -163 20 -18 66 -46 102
-63 l65 -31 1655 0 1655 0 65 31 c36 17 82 45 102 63 41 35 93 112 111 163 8
23 13 214 17 668 l5 635 440 5 c300 4 451 9 473 17 89 31 176 110 220 198 43
87 43 90 40 1380 l-3 1230 -27 58 c-36 75 -88 139 -147 176 -102 66 133 61
-2956 60 -2351 -1 -2817 -3 -2854 -15z m5316 -388 c67 -18 152 -75 197 -133
56 -72 79 -143 80 -243 0 -75 -4 -93 -31 -153 -18 -37 -38 -73 -45 -81 -7 -8
-20 -22 -29 -32 -79 -91 -229 -140 -354 -114 -189 39 -315 193 -315 385 0 213
167 382 380 384 36 1 88 -5 117 -13z m-887 -2721 l0 -1175 -1570 0 -1570 0 0
1175 0 1175 1570 0 1570 0 0 -1175z"/>
<path d="M1960 2155 l0 -195 1170 0 1170 0 0 195 0 195 -1170 0 -1170 0 0
-195z"/>
<path d="M1960 1370 l0 -190 975 0 975 0 0 190 0 190 -975 0 -975 0 0 -190z"/>
</g>
</svg>
